name C:\Users\r0593348\3dpredictsim\Results\Batchsim_tmt_linear\Pog_s1_tmt_aCst_d00_k2000_ig24_pas.mot
datacolumns 128
datarows 4
range 1.10435018 1.13748068
endheader
time	pelvis_tilt	pelvis_list	pelvis_rotation	pelvis_tx	pelvis_ty	pelvis_tz	hip_flexion_l	hip_adduction_l	hip_rotation_l	hip_flexion_r	hip_adduction_r	hip_rotation_r	knee_angle_l	knee_angle_r	ankle_angle_l	ankle_angle_r	subtalar_angle_l	subtalar_angle_r	tmt_angle_l	tmt_angle_r	mtp_angle_l	mtp_angle_r	lumbar_extension	lumbar_bending	lumbar_rotation	arm_flex_l	arm_add_l	arm_rot_l	arm_flex_r	arm_add_r	arm_rot_r	elbow_flex_l	elbow_flex_r	pro_sup_l	pro_sup_r	glut_med1_l/activation	glut_med2_l/activation	glut_med3_l/activation	glut_min1_l/activation	glut_min2_l/activation	glut_min3_l/activation	semimem_l/activation	semiten_l/activation	bifemlh_l/activation	bifemsh_l/activation	sar_l/activation	add_long_l/activation	add_brev_l/activation	add_mag1_l/activation	add_mag2_l/activation	add_mag3_l/activation	tfl_l/activation	pect_l/activation	grac_l/activation	glut_max1_l/activation	glut_max2_l/activation	glut_max3_l/activation	iliacus_l/activation	psoas_l/activation	quad_fem_l/activation	gem_l/activation	peri_l/activation	rect_fem_l/activation	vas_med_l/activation	vas_int_l/activation	vas_lat_l/activation	med_gas_l/activation	lat_gas_l/activation	soleus_l/activation	tib_post_l/activation	flex_dig_l/activation	flex_hal_l/activation	tib_ant_l/activation	per_brev_l/activation	per_long_l/activation	per_tert_l/activation	ext_dig_l/activation	ext_hal_l/activation	ercspn_l/activation	intobl_l/activation	extobl_l/activation	glut_med1_r/activation	glut_med2_r/activation	glut_med3_r/activation	glut_min1_r/activation	glut_min2_r/activation	glut_min3_r/activation	semimem_r/activation	semiten_r/activation	bifemlh_r/activation	bifemsh_r/activation	sar_r/activation	add_long_r/activation	add_brev_r/activation	add_mag1_r/activation	add_mag2_r/activation	add_mag3_r/activation	tfl_r/activation	pect_r/activation	grac_r/activation	glut_max1_r/activation	glut_max2_r/activation	glut_max3_r/activation	iliacus_r/activation	psoas_r/activation	quad_fem_r/activation	gem_r/activation	peri_r/activation	rect_fem_r/activation	vas_med_r/activation	vas_int_r/activation	vas_lat_r/activation	med_gas_r/activation	lat_gas_r/activation	soleus_r/activation	tib_post_r/activation	flex_dig_r/activation	flex_hal_r/activation	tib_ant_r/activation	per_brev_r/activation	per_long_r/activation	per_tert_r/activation	ext_dig_r/activation	ext_hal_r/activation	ercspn_r/activation	intobl_r/activation	extobl_r/activation	
          1.10435018	         -2.92548722	         -2.56867702	          6.13934191	          1.38043772	          0.85494420	         -0.00298736	        -18.79039726	         -2.36066317	          7.13568317	         31.65300390	          3.35456648	         -2.95105665	         -7.16785276	        -14.24949985	          0.77998104	          6.56315394	         10.62438147	         -3.93370645	          0.51011599	          0.01682533	         22.70794308	         -0.11419805	         -2.14097233	          0.95014088	         -2.16439844	          8.53151108	        -13.45948644	         17.55247970	        -10.44160360	        -13.53296280	          5.94129404	         39.38180250	         13.72201110	         86.51662706	         86.51662706	          0.23986937	          0.09047232	          0.06638254	          0.30054820	          0.18942323	          0.09827861	          0.05000224	          0.05000023	          0.05000017	          0.07459742	          0.10195350	          0.12186262	          0.07909109	          0.05000255	          0.05000244	          0.05000071	          0.31494360	          0.11716704	          0.05000335	          0.05000267	          0.05000160	          0.05000112	          0.41030598	          0.66236122	          0.05000044	          0.05000090	          0.05000021	          0.25579774	          0.09682866	          0.08677102	          0.06330944	          0.30877471	          0.41683166	          0.28312930	          0.28017934	          0.27801262	          0.37500423	          0.05000003	          0.05920359	          0.16766317	          0.05000019	          0.05000005	          0.05000018	          0.05000018	          0.05000006	          0.05000005	          0.05000199	          0.05000089	          0.05000020	          0.05920291	          0.05920272	          0.05000155	          0.05920308	          0.05000109	          0.32299768	          0.05000033	          0.05000166	          0.11636957	          0.27273692	          0.13524248	          0.12795237	          0.13432533	          0.05000020	          0.06437425	          0.08232776	          0.05000039	          0.14764185	          0.17262540	          0.05920302	          0.05465773	          0.14808106	          0.20855912	          0.13539923	          0.05691068	          0.16965138	          0.15739250	          0.14412375	          0.05000002	          0.05000006	          0.05000001	          0.05000001	          0.05000031	          0.05000025	          0.61547060	          0.37091199	          0.21233875	          0.39334038	          0.59051114	          0.32997061	          0.06812855	          0.09104821	          0.09761032	
          1.11539368	         -2.91609170	         -2.66050486	          6.42242845	          1.39733768	          0.85381941	         -0.00277390	        -18.57433724	         -2.67658856	          6.93783926	         31.04774971	          3.70771661	         -2.70787242	         -9.30422209	        -14.57257434	         -0.15524373	          5.93647930	         11.62344455	         -4.41245773	          0.47770104	          0.00787057	         23.71588354	         -0.07829615	         -1.91707039	          1.17631317	         -2.25019442	          8.33250780	        -13.47010244	         17.74342182	        -11.61398740	        -13.52274861	          5.85819074	         40.58964834	         13.64384534	         86.51662706	         86.51662706	          0.20258248	          0.07640870	          0.05825510	          0.25382904	          0.15997803	          0.08300155	          0.05000497	          0.05000084	          0.05000169	          0.06300151	          0.08610534	          0.21130669	          0.14248924	          0.06823582	          0.05920539	          0.05920373	          0.26598680	          0.09895529	          0.05000657	          0.05001250	          0.05001628	          0.05920094	          0.34652523	          0.61121831	          0.05920276	          0.05920284	          0.05919971	          0.21603479	          0.15520308	          0.16314587	          0.16313495	          0.26077660	          0.35203644	          0.23911770	          0.23662656	          0.23479690	          0.31671132	          0.05000003	          0.05000068	          0.16596002	          0.05000011	          0.05000003	          0.05000016	          0.06147746	          0.05920301	          0.05000055	          0.05000004	          0.05000018	          0.13667091	          0.05000010	          0.05000012	          0.05000026	          0.05000029	          0.05000047	          0.27278870	          0.05000025	          0.05000188	          0.09828040	          0.23034095	          0.31222734	          0.22206424	          0.15643734	          0.05000127	          0.05436911	          0.08225615	          0.10918070	          0.15165073	          0.14579201	          0.05000024	          0.05000068	          0.36714454	          0.17613930	          0.11435189	          0.05920316	          0.14405518	          0.17527192	          0.13809377	          0.05353299	          0.06457896	          0.05000007	          0.06537027	          0.07264682	          0.07010016	          0.51979762	          0.39401336	          0.25211975	          0.33219689	          0.54873687	          0.27867773	          0.05753817	          0.07689504	          0.08243709	
          1.12643718	         -2.90294356	         -2.75076298	          6.67301162	          1.41447078	          0.85272326	         -0.00256694	        -18.26355569	         -2.97771422	          6.72761420	         30.30416858	          3.99808113	         -2.43463559	        -11.58882881	        -15.20472983	         -1.28042666	          5.46069253	         12.55441772	         -4.92422864	          0.44048859	         -0.00603991	         24.53302998	         -0.19371858	         -1.67556785	          1.40610535	         -2.32395958	          8.04729618	        -13.48057397	         17.86107002	        -12.77729356	        -13.51653376	          5.84019870	         41.75865270	         13.59811959	         86.51662706	         86.51662706	          0.27763132	          0.06453123	          0.05000008	          0.32553375	          0.13511002	          0.07009928	          0.05169225	          0.05000027	          0.05000020	          0.05320822	          0.07272105	          0.17845998	          0.12034002	          0.05762895	          0.05000260	          0.05000098	          0.28787117	          0.08357461	          0.05000111	          0.05000184	          0.05000100	          0.05000066	          0.29265908	          0.57061840	          0.05000016	          0.05000067	          0.05000016	          0.18245285	          0.13107734	          0.13778543	          0.13777621	          0.22023966	          0.29731343	          0.20194756	          0.19984373	          0.19829860	          0.26747962	          0.05000002	          0.10595121	          0.19004977	          0.05000016	          0.05000008	          0.05000017	          0.06754986	          0.05000009	          0.05000006	          0.26425821	          0.26943206	          0.34799403	          0.34649871	          0.23239613	          0.19665312	          0.07126062	          0.05003899	          0.23038454	          0.06260536	          0.05000322	          0.08300312	          0.19453528	          0.26369272	          0.18754527	          0.15639578	          0.05000057	          0.05012908	          0.06948854	          0.20708107	          0.19563342	          0.13203870	          0.05000197	          0.05000055	          0.31007316	          0.14875918	          0.22584861	          0.05000028	          0.12166236	          0.14802659	          0.11662761	          0.05000166	          0.05454054	          0.05612725	          0.05520874	          0.06135420	          0.05920344	          0.58119680	          0.43262939	          0.21672722	          0.52091556	          0.62548342	          0.29279503	          0.07422319	          0.09393927	          0.06962250	
          1.13748068	         -2.88808967	         -2.82964464	          6.88519386	          1.43161543	          0.85168869	         -0.00233176	        -17.83772021	         -3.25507000	          6.51361925	         29.49936193	          4.27526549	         -2.16290807	        -14.02590220	        -15.80332573	         -2.57456387	          5.11121074	         13.41771281	         -5.45136979	          0.39085358	         -0.00881375	         25.06479677	         -0.20117670	         -1.43891679	          1.62885931	         -2.38746831	          7.71585247	        -13.49817540	         17.93333368	        -13.87625402	        -13.50997690	          5.89387393	         42.85937227	         13.54857579	         86.51662706	         86.51662706	          0.23447449	          0.05450010	          0.05000010	          0.27493074	          0.11410765	          0.05920265	          0.07047206	          0.05000023	          0.05000026	          0.05000011	          0.06141699	          0.19251476	          0.13148908	          0.05000078	          0.05000909	          0.07527185	          0.25174685	          0.07058380	          0.05000063	          0.05000285	          0.05000199	          0.05000155	          0.24716614	          0.51146019	          0.05000019	          0.05000074	          0.05000019	          0.15409111	          0.11636840	          0.11636845	          0.11636837	          0.18600406	          0.25109695	          0.17055541	          0.16877867	          0.16747383	          0.22590084	          0.06936068	          0.13765945	          0.16050761	          0.05000076	          0.16119732	          0.05000330	          0.09995474	          0.05000002	          0.05000004	          0.35634298	          0.39189994	          0.45535397	          0.29263714	          0.19627389	          0.26741286	          0.07135571	          0.10935967	          0.19457198	          0.06945744	          0.05000057	          0.07010063	          0.16429551	          0.22272476	          0.24033427	          0.19180917	          0.05000033	          0.05000790	          0.13601553	          0.28267449	          0.23759194	          0.19027044	          0.05000015	          0.05000015	          0.26187340	          0.12563516	          0.22736526	          0.05000005	          0.13942524	          0.21442845	          0.15970137	          0.05000002	          0.05000005	          0.05000000	          0.05000000	          0.05181697	          0.05000054	          0.66102040	          0.36537862	          0.18303786	          0.67748722	          0.64565783	          0.40331905	          0.09127258	          0.07933671	          0.05879991	
